<svg width="170" height="27" viewBox="0 0 170 27" fill="none" xmlns="http://www.w3.org/2000/svg">
<path d="M0.933594 26V0.40625H9.17773C11.4395 0.40625 13.4727 0.921875 15.2773 1.95312C17.082 2.97266 18.4883 4.41992 19.4961 6.29492C20.5156 8.1582 21.0312 10.25 21.043 12.5703V13.748C21.043 16.0918 20.5449 18.1953 19.5488 20.0586C18.5645 21.9102 17.1699 23.3633 15.3652 24.418C13.5723 25.4609 11.5684 25.9883 9.35352 26H0.933594ZM7.10352 5.16992V21.2539H9.24805C11.0176 21.2539 12.377 20.627 13.3262 19.373C14.2754 18.1074 14.75 16.2324 14.75 13.748V12.6406C14.75 10.168 14.2754 8.30469 13.3262 7.05078C12.377 5.79688 10.9941 5.16992 9.17773 5.16992H7.10352Z" fill="white"/>
<path d="M40.0801 15.1543H30.377V21.2539H41.8379V26H24.207V0.40625H41.873V5.16992H30.377V10.5664H40.0801V15.1543Z" fill="white"/>
<path d="M52.4551 0.40625L58.168 18.2129L63.8633 0.40625H71.9844V26H65.7969V20.0234L66.3945 7.78906L60.207 26H56.1289L49.9238 7.77148L50.5215 20.0234V26H44.3516V0.40625H52.4551Z" fill="white"/>
<path d="M97.5957 13.7305C97.5957 16.2266 97.1328 18.4355 96.207 20.3574C95.2812 22.2793 93.9629 23.7617 92.252 24.8047C90.5527 25.8359 88.6133 26.3516 86.4336 26.3516C84.2539 26.3516 82.3203 25.8535 80.6328 24.8574C78.9453 23.8496 77.627 22.4141 76.6777 20.5508C75.7402 18.6875 75.248 16.5488 75.2012 14.1348V12.6934C75.2012 10.1855 75.6582 7.97656 76.5723 6.06641C77.498 4.14453 78.8164 2.66211 80.5273 1.61914C82.25 0.576172 84.207 0.0546875 86.3984 0.0546875C88.5664 0.0546875 90.5 0.570312 92.1992 1.60156C93.8984 2.63281 95.2168 4.10352 96.1543 6.01367C97.1035 7.91211 97.584 10.0918 97.5957 12.5527V13.7305ZM91.3203 12.6582C91.3203 10.1152 90.8926 8.1875 90.0371 6.875C89.1934 5.55078 87.9805 4.88867 86.3984 4.88867C83.3047 4.88867 81.6699 7.20898 81.4941 11.8496L81.4766 13.7305C81.4766 16.2383 81.8926 18.166 82.7246 19.5137C83.5566 20.8613 84.793 21.5352 86.4336 21.5352C87.9922 21.5352 89.1934 20.873 90.0371 19.5488C90.8809 18.2246 91.3086 16.3203 91.3203 13.8359V12.6582Z" fill="white"/>
<path d="M116.562 19.707C116.562 18.2891 116.064 17.1699 115.068 16.3496C114.072 15.5176 112.25 14.7324 109.602 13.9941C106.953 13.2441 105.02 12.4297 103.801 11.5508C102.066 10.3086 101.199 8.67969 101.199 6.66406C101.199 4.70703 102.002 3.11914 103.607 1.90039C105.225 0.669922 107.287 0.0546875 109.795 0.0546875C111.494 0.0546875 113.012 0.382812 114.348 1.03906C115.695 1.69531 116.738 2.60938 117.477 3.78125C118.215 4.95312 118.584 6.25977 118.584 7.70117H116.404C116.404 5.95508 115.807 4.55469 114.611 3.5C113.416 2.43359 111.811 1.90039 109.795 1.90039C107.838 1.90039 106.279 2.33984 105.119 3.21875C103.959 4.08594 103.379 5.22266 103.379 6.62891C103.379 7.92969 103.9 8.99023 104.943 9.81055C105.986 10.6309 107.656 11.3574 109.953 11.9902C112.25 12.6113 113.99 13.2617 115.174 13.9414C116.357 14.6094 117.248 15.4121 117.846 16.3496C118.443 17.2871 118.742 18.3945 118.742 19.6719C118.742 21.6875 117.934 23.3047 116.316 24.5234C114.711 25.7422 112.59 26.3516 109.953 26.3516C108.148 26.3516 106.49 26.0293 104.979 25.3848C103.479 24.7402 102.336 23.8379 101.551 22.6777C100.777 21.5176 100.391 20.1875 100.391 18.6875H102.553C102.553 20.4922 103.227 21.916 104.574 22.959C105.922 24.002 107.715 24.5234 109.953 24.5234C111.945 24.5234 113.545 24.084 114.752 23.2051C115.959 22.3262 116.562 21.1602 116.562 19.707Z" fill="white"/>
<path d="M126.055 26H123.893V0.40625H126.055V26Z" fill="white"/>
<path d="M149.855 2.25195H141.084V26H138.922V2.25195H130.168V0.40625H149.855V2.25195Z" fill="white"/>
<path d="M168.137 13.7305H156.166V24.1719H169.93V26H154.004V0.40625H169.842V2.25195H156.166V11.9023H168.137V13.7305Z" fill="white"/>
</svg>
