<svg width="468" height="468" viewBox="0 0 468 468" fill="none" xmlns="http://www.w3.org/2000/svg">
<rect width="468" height="468" fill="#34BEF9"/>
<path d="M378.862 264.679C377.121 263.673 375.032 263.459 373.125 264.091L330.794 278.149L304.993 263.25L334.215 252.958C335.802 252.402 337.134 251.297 337.975 249.838L338.254 249.354C340.199 245.988 339.046 241.682 335.68 239.74C333.941 238.736 331.85 238.522 329.942 239.155L287.614 253.209L264.527 239.887V228.113L287.609 214.786L329.937 228.84C331.845 229.473 333.936 229.264 335.675 228.255C339.041 226.313 340.194 222.007 338.249 218.64L337.975 218.152C337.134 216.698 335.802 215.592 334.215 215.03L304.993 204.74L330.794 189.841L373.125 203.898C375.032 204.531 377.121 204.322 378.862 203.311C382.226 201.368 383.379 197.063 381.437 193.699L381.155 193.213C380.314 191.759 378.984 190.653 377.398 190.093L348.175 179.801L362.688 171.421C367.569 168.607 369.237 162.365 366.423 157.489C363.607 152.608 357.369 150.94 352.488 153.756L337.975 162.135L343.676 131.683C343.987 130.029 343.693 128.321 342.856 126.869L342.575 126.384C340.633 123.017 336.327 121.867 332.963 123.809C331.222 124.812 329.994 126.516 329.586 128.485L320.589 172.171L294.788 187.067L300.491 156.617C300.802 154.964 300.506 153.255 299.669 151.801L299.39 151.318C297.445 147.951 293.142 146.798 289.775 148.743C288.037 149.747 286.807 151.45 286.399 153.42L277.404 197.105L260.859 206.658L244.128 198.298V177.898L277.464 148.268C278.963 146.933 279.827 145.013 279.827 143.006C279.827 139.119 276.674 135.966 272.787 135.966H272.232C270.554 135.966 268.927 136.569 267.652 137.659L244.128 157.825V128.037L277.464 98.4064C278.963 97.0642 279.827 95.1518 279.827 93.1372C279.827 89.2525 276.674 86.0999 272.787 86.0999H272.232C270.554 86.0999 268.927 86.7025 267.652 87.7932L244.128 107.959V91.1998C244.128 85.5645 239.563 81 233.928 81C228.29 81 223.728 85.5645 223.728 91.1998V107.959L200.206 87.7982C198.931 86.7075 197.304 86.1049 195.626 86.1049H195.066C191.179 86.1049 188.029 89.2575 188.029 93.1422C188.029 95.1518 188.89 97.0692 190.389 98.4064L223.728 128.037V157.825L200.206 137.664C198.931 136.574 197.304 135.971 195.626 135.971H195.066C191.179 135.971 188.029 139.124 188.029 143.011C188.029 145.02 188.89 146.938 190.389 148.273L223.728 177.898V198.298L206.989 206.668L190.444 197.115L181.449 153.43C181.046 151.46 179.816 149.757 178.073 148.753C174.706 146.808 170.403 147.961 168.458 151.328L168.179 151.811C167.338 153.265 167.046 154.974 167.357 156.627L173.06 187.077L147.259 172.181L138.262 128.495C137.859 126.526 136.631 124.822 134.885 123.819C131.521 121.877 127.216 123.029 125.273 126.394L124.992 126.879C124.15 128.331 123.861 130.042 124.173 131.693L129.873 162.145L115.36 153.766C110.479 150.95 104.241 152.618 101.425 157.499C98.6107 162.38 100.279 168.617 105.16 171.431L119.673 179.811L90.4503 190.103C88.8641 190.658 87.5343 191.766 86.6926 193.223L86.4112 193.709C84.4689 197.073 85.6218 201.378 88.9861 203.321C90.7267 204.327 92.816 204.541 94.7235 203.908L137.054 189.854L162.855 204.75L133.633 215.042C132.047 215.597 130.714 216.703 129.873 218.162L129.594 218.648C127.649 222.012 128.802 226.318 132.169 228.26C133.907 229.264 135.998 229.478 137.906 228.848L180.234 214.791L203.328 228.113V239.887L180.244 253.214L137.916 239.16C136.008 238.527 133.917 238.736 132.178 239.745C128.812 241.687 127.659 245.993 129.604 249.359L129.883 249.843C130.724 251.297 132.056 252.402 133.643 252.965L162.865 263.255L137.064 278.154L94.7335 264.096C92.826 263.464 90.7367 263.673 88.9961 264.684C85.6318 266.626 84.4788 270.932 86.4212 274.296L86.7026 274.782C87.5443 276.236 88.874 277.342 90.4603 277.902L119.683 288.194L105.17 296.574C100.289 299.387 98.6207 305.625 101.437 310.506C104.251 315.387 110.489 317.055 115.37 314.239L129.883 305.859L124.182 336.312C123.871 337.965 124.165 339.674 125.002 341.126L125.283 341.611C127.225 344.978 131.531 346.128 134.895 344.186C136.636 343.182 137.864 341.479 138.272 339.509L147.269 295.824L173.07 280.928L167.367 311.378C167.056 313.031 167.352 314.739 168.189 316.194L168.468 316.677C170.413 320.044 174.716 321.197 178.083 319.252C179.821 318.248 181.051 316.545 181.459 314.575L190.454 270.89L206.999 261.337L223.728 269.697V290.097L190.389 319.727C188.89 321.07 188.029 322.982 188.029 324.989C188.029 328.876 191.179 332.029 195.066 332.029H195.621C197.3 332.029 198.926 331.426 200.201 330.336L223.728 310.175V339.963L190.389 369.593C188.89 370.931 188.029 372.848 188.029 374.858C188.029 378.742 191.179 381.895 195.066 381.895H195.621C197.3 381.895 198.926 381.292 200.201 380.202L223.728 360.041V376.8C223.728 382.435 228.29 387 233.928 387C239.563 387 244.128 382.435 244.128 376.8V360.041L267.647 380.202C268.922 381.292 270.549 381.895 272.227 381.895H272.782C276.669 381.895 279.82 378.742 279.82 374.858C279.82 372.848 278.958 370.931 277.459 369.593L244.128 339.963V310.175L267.647 330.336C268.922 331.426 270.549 332.029 272.227 332.029H272.782C276.669 332.029 279.82 328.876 279.82 324.989C279.82 322.982 278.958 321.062 277.459 319.727L244.128 290.097V269.697L260.864 261.327L277.409 270.88L286.404 314.565C286.807 316.535 288.037 318.238 289.78 319.242C293.147 321.187 297.45 320.034 299.395 316.667L299.674 316.184C300.516 314.73 300.807 313.021 300.496 311.368L294.793 280.918L320.594 295.814L329.591 339.499C329.994 341.469 331.222 343.172 332.968 344.176C336.332 346.118 340.637 344.965 342.58 341.601L342.861 341.116C343.703 339.664 343.992 337.953 343.683 336.302L337.98 305.849L352.493 314.229C357.374 317.045 363.612 315.372 366.428 310.496C369.242 305.615 367.574 299.377 362.693 296.564L348.18 288.184L377.403 277.892C378.989 277.337 380.319 276.229 381.16 274.772L381.442 274.286C383.384 270.927 382.231 266.621 378.862 264.679ZM244.128 244.197L233.928 249.297L223.728 244.197V223.798L233.928 218.698L244.128 223.798V244.197Z" fill="black"/>
</svg>
