<svg width="468" height="468" viewBox="0 0 468 468" fill="none" xmlns="http://www.w3.org/2000/svg">
<rect width="468" height="468" fill="#F9C234"/>
<rect width="468" height="468" fill="#F9C234"/>
<rect width="468" height="468" fill="#F9C234"/>
<path d="M383.333 223.333H378H371.317L335.983 152.664C331.319 143.336 321.943 137.541 311.515 137.541H306.901C303.956 137.541 301.568 139.929 301.568 142.875C301.568 145.82 303.956 148.208 306.901 148.208H311.515C317.876 148.208 323.597 151.743 326.443 157.435L359.392 223.333H108.609L141.559 157.435C144.404 151.743 150.124 148.208 156.487 148.208H161.1C164.045 148.208 166.433 145.82 166.433 142.875C166.433 139.929 164.045 137.541 161.1 137.541H156.487C146.059 137.541 136.683 143.336 132.019 152.664L96.6826 223.333H89.9999H84.6666C81.7213 223.333 79.3333 225.721 79.3333 228.667V247.359C79.3333 271.708 88.6999 294.601 105.709 311.821C117.579 323.841 133.365 330.46 150.16 330.46C166.955 330.46 182.741 323.841 194.609 311.821L199.885 306.48C209.653 296.591 215.032 283.447 215.032 269.468C215.032 266.325 214.749 263.227 214.217 260.199C226.296 254.357 239.307 254.353 253.787 260.165C253.251 263.205 252.965 266.313 252.965 269.468C252.965 283.444 258.344 296.589 268.112 306.48L273.387 311.821C285.256 323.841 301.043 330.46 317.837 330.46C334.632 330.46 350.419 323.841 362.288 311.821C364.357 309.727 364.336 306.349 362.24 304.28C360.145 302.208 356.768 302.228 354.697 304.327C344.848 314.3 331.756 319.793 317.836 319.793C303.916 319.793 290.824 314.301 280.975 304.327L275.7 298.985C267.917 291.104 263.631 280.621 263.631 269.468C263.631 256.656 269.308 244.743 279.205 236.783C281.439 234.988 284.233 234 287.079 234H378V247.359C378 257.997 375.961 268.375 371.943 278.199C370.828 280.925 372.133 284.039 374.86 285.155C377.587 286.272 380.7 284.964 381.816 282.237C386.363 271.124 388.668 259.389 388.668 247.359V228.667C388.667 225.721 386.279 223.333 383.333 223.333ZM192.297 298.984L187.021 304.325C177.172 314.299 164.08 319.792 150.16 319.792C136.24 319.792 123.149 314.3 113.299 304.325C98.2746 289.113 89.9999 268.883 89.9999 247.359V234H180.919C183.763 234 186.559 234.988 188.791 236.783C198.689 244.743 204.367 256.655 204.367 269.468C204.367 280.621 200.08 291.103 192.297 298.984ZM256.712 249.868C240.512 243.639 225.273 243.625 211.276 249.835C208.959 244.024 205.607 238.665 201.344 234.001H266.657C262.385 238.675 259.029 244.044 256.712 249.868Z" fill="black"/>
<path d="M317.772 256.896C315.689 254.813 312.312 254.813 310.229 256.896L288.896 278.229C286.813 280.312 286.813 283.689 288.896 285.771C289.937 286.812 291.303 287.333 292.668 287.333C294.033 287.333 295.397 286.812 296.44 285.771L317.773 264.437C319.855 262.356 319.855 258.977 317.772 256.896Z" fill="black"/>
<path d="M319.333 298C320.698 298 322.062 297.479 323.105 296.437L360.438 259.104C362.521 257.021 362.521 253.644 360.438 251.563C358.356 249.48 354.978 249.48 352.896 251.563L315.562 288.896C313.48 290.979 313.48 294.356 315.562 296.437C316.604 297.479 317.968 298 319.333 298Z" fill="black"/>
<path d="M136.438 256.896C134.356 254.813 130.978 254.813 128.896 256.896L107.562 278.229C105.48 280.312 105.48 283.689 107.562 285.771C108.604 286.812 109.968 287.333 111.333 287.333C112.698 287.333 114.062 286.812 115.105 285.771L136.438 264.437C138.521 262.356 138.521 258.977 136.438 256.896Z" fill="black"/>
<path d="M171.561 251.563L134.228 288.896C132.145 290.979 132.145 294.356 134.228 296.437C135.271 297.479 136.635 298 138 298C139.365 298 140.729 297.479 141.772 296.437L179.105 259.104C181.188 257.021 181.188 253.644 179.105 251.563C177.021 249.479 173.645 249.479 171.561 251.563Z" fill="black"/>
</svg>
