<svg width="468" height="468" viewBox="0 0 468 468" fill="none" xmlns="http://www.w3.org/2000/svg">
<rect width="468" height="468" fill="#F93486"/>
<path d="M251.628 394.712C245.505 394.705 239.634 392.269 235.304 387.939C230.974 383.609 228.539 377.739 228.531 371.616C228.531 370.165 229.107 368.774 230.133 367.749C231.159 366.723 232.55 366.147 234 366.147C235.45 366.147 236.841 366.723 237.867 367.749C238.893 368.774 239.469 370.165 239.469 371.616C239.469 374.84 240.75 377.933 243.03 380.214C245.31 382.494 248.403 383.775 251.628 383.775C254.853 383.775 257.946 382.494 260.226 380.214C262.506 377.933 263.787 374.84 263.787 371.616C263.787 370.165 264.364 368.774 265.389 367.749C266.415 366.723 267.806 366.147 269.256 366.147C270.707 366.147 272.098 366.723 273.123 367.749C274.149 368.774 274.725 370.165 274.725 371.616C274.718 377.739 272.282 383.609 267.952 387.939C263.622 392.269 257.752 394.705 251.628 394.712Z" fill="black"/>
<path d="M234 73.2875C195.54 73.4579 158.669 88.6435 131.244 115.607C103.819 142.571 88.0101 179.18 87.1875 217.631C87.1632 219.076 87.712 220.472 88.7139 221.514C89.7158 222.556 91.0894 223.159 92.5344 223.191H92.6594C94.0821 223.19 95.4483 222.634 96.4682 221.642C97.4881 220.65 98.0813 219.3 98.1219 217.878C98.3804 207.32 102.641 197.254 110.041 189.718C117.441 182.183 127.428 177.741 137.98 177.291C148.532 176.842 158.861 180.418 166.876 187.297C174.89 194.176 179.991 203.842 181.147 214.341C181.153 214.528 181.169 214.714 181.194 214.9C181.348 216.236 181.421 217.58 181.413 218.925C181.413 220.375 181.989 221.766 183.014 222.792C184.04 223.818 185.431 224.394 186.881 224.394C188.332 224.394 189.723 223.818 190.748 222.792C191.774 221.766 192.35 220.375 192.35 218.925C192.361 210.85 194.716 202.952 199.129 196.191C203.543 189.429 209.825 184.094 217.213 180.834V222.084C217.213 223.535 217.789 224.926 218.814 225.951C219.84 226.977 221.231 227.553 222.681 227.553H228.531V371.631C228.531 373.082 229.107 374.473 230.133 375.498C231.159 376.524 232.55 377.1 234 377.1C235.45 377.1 236.841 376.524 237.867 375.498C238.893 374.473 239.469 373.082 239.469 371.631V227.569H245.328C246.779 227.569 248.17 226.993 249.195 225.967C250.221 224.941 250.797 223.55 250.797 222.1V180.85C258.184 184.11 264.467 189.444 268.88 196.206C273.294 202.968 275.649 210.866 275.659 218.941C275.659 220.391 276.236 221.782 277.261 222.808C278.287 223.833 279.678 224.409 281.128 224.409C282.579 224.409 283.97 223.833 284.995 222.808C286.021 221.782 286.597 220.391 286.597 218.941C286.59 207.981 290.903 197.461 298.601 189.66C306.299 181.86 316.762 177.408 327.72 177.27C338.679 177.132 349.25 181.32 357.142 188.924C365.034 196.529 369.61 206.938 369.878 217.894C369.919 219.316 370.512 220.666 371.532 221.658C372.552 222.65 373.918 223.205 375.341 223.206H375.466C376.911 223.174 378.284 222.571 379.286 221.53C380.288 220.488 380.837 219.092 380.813 217.647C379.994 179.193 364.187 142.58 336.762 115.613C309.337 88.6457 272.462 73.458 234 73.2875ZM139.744 166.316C126.601 166.261 113.918 171.148 104.209 180.006C112.038 155.14 126.797 133.023 146.755 116.251C166.713 99.4788 191.041 88.7483 216.884 85.3187C192.544 110.906 184.838 158.025 182.438 188.172C177.573 181.395 171.162 175.877 163.736 172.076C156.311 168.275 148.086 166.3 139.744 166.316ZM239.859 216.6H228.141V177.716C232.023 177.099 235.978 177.099 239.859 177.716V216.6ZM246.966 167.966C246.73 167.89 246.49 167.828 246.247 167.781C238.193 165.823 229.788 165.823 221.734 167.781C221.523 167.823 221.314 167.877 221.109 167.944C210.426 170.665 200.865 176.67 193.775 185.112C196.766 152.491 205.963 103.081 234.013 85.1125C262.047 103.072 271.238 152.481 274.238 185.112C267.162 176.688 257.625 170.691 246.966 167.966ZM328.256 166.316C319.907 166.32 311.679 168.315 304.254 172.135C296.829 175.954 290.422 181.488 285.563 188.278C283.181 158.137 275.488 110.934 251.119 85.3219C276.962 88.7514 301.29 99.4819 321.248 116.254C341.206 133.026 355.966 155.143 363.794 180.009C354.085 171.149 341.4 166.261 328.256 166.316Z" fill="black"/>
</svg>
